<svg xmlns="http://www.w3.org/2000/svg" xmlns:xlink="http://www.w3.org/1999/xlink" width="500" zoomAndPan="magnify" viewBox="0 0 375 374.999991" height="500" preserveAspectRatio="xMidYMid meet" version="1.0"><defs><g/><clipPath id="id1"><path d="M 127.484375 104.769531 L 247.484375 104.769531 L 247.484375 224.769531 L 127.484375 224.769531 Z M 127.484375 104.769531 " clip-rule="nonzero"/></clipPath></defs><g clip-path="url(#id1)"><path fill="#ffffff" d="M 229.023438 104.769531 L 145.949219 104.769531 C 135.765625 104.769531 127.484375 113.050781 127.484375 123.234375 L 127.484375 188.789062 C 127.484375 198.964844 135.765625 207.25 145.949219 207.25 L 166.804688 207.25 L 176.660156 219.570312 C 179.308594 222.875 183.253906 224.769531 187.484375 224.769531 C 191.71875 224.769531 195.660156 222.875 198.308594 219.570312 L 208.167969 207.25 L 229.023438 207.25 C 239.207031 207.25 247.484375 198.972656 247.484375 188.789062 L 247.484375 123.234375 C 247.484375 113.050781 239.207031 104.769531 229.023438 104.769531 Z M 238.253906 188.789062 C 238.253906 193.875 234.109375 198.019531 229.023438 198.019531 L 205.949219 198.019531 C 204.550781 198.019531 203.222656 198.660156 202.34375 199.753906 L 191.09375 213.8125 C 189.335938 216.019531 185.628906 216.019531 183.871094 213.8125 L 172.621094 199.753906 C 171.742188 198.660156 170.414062 198.019531 169.015625 198.019531 L 145.949219 198.019531 C 140.863281 198.019531 136.71875 193.882812 136.71875 188.789062 L 136.71875 123.234375 C 136.71875 118.148438 140.863281 114.003906 145.949219 114.003906 L 229.03125 114.003906 C 234.117188 114.003906 238.261719 118.140625 238.261719 123.234375 L 238.261719 188.789062 Z M 238.253906 188.789062 " fill-opacity="1" fill-rule="nonzero"/></g><g fill="#ff8d55" fill-opacity="0.4"><g transform="translate(114.469012, 279.89859)"><g><path d="M 30.746094 -35.246094 L 30.746094 -43.378906 L 3.796875 -43.378906 L 3.796875 0 L 11.929688 0 L 11.929688 -15.34375 L 23.859375 -15.34375 L 23.859375 -23.480469 L 11.929688 -23.480469 L 11.929688 -35.246094 Z M 30.746094 -35.246094 "/></g></g></g><g fill="#ff8d55" fill-opacity="0.4"><g transform="translate(147.327927, 279.89859)"><g><path d="M 28.957031 -35.355469 L 28.957031 -43.433594 L 3.796875 -43.433594 L 3.796875 0 L 28.957031 0 L 28.957031 -8.078125 L 11.929688 -8.078125 L 11.929688 -17.730469 L 22.070312 -17.730469 L 22.070312 -25.8125 L 11.929688 -25.8125 L 11.929688 -35.355469 Z M 28.957031 -35.355469 "/></g></g></g><g fill="#ff8d55" fill-opacity="0.4"><g transform="translate(180.078398, 279.89859)"><g><path d="M 28.957031 -35.355469 L 28.957031 -43.433594 L 3.796875 -43.433594 L 3.796875 0 L 28.957031 0 L 28.957031 -8.078125 L 11.929688 -8.078125 L 11.929688 -17.730469 L 22.070312 -17.730469 L 22.070312 -25.8125 L 11.929688 -25.8125 L 11.929688 -35.355469 Z M 28.957031 -35.355469 "/></g></g></g><g fill="#ff8d55" fill-opacity="0.4"><g transform="translate(212.828868, 279.89859)"><g><path d="M 18.003906 -43.378906 L 3.796875 -43.378906 L 3.796875 0 L 18.003906 0 C 29.445312 0 37.578125 -9.707031 37.578125 -21.691406 C 37.578125 -33.671875 29.117188 -43.378906 18.003906 -43.378906 Z M 18.003906 -35.300781 C 24.457031 -35.300781 29.5 -29.335938 29.5 -21.691406 C 29.5 -17.785156 28.304688 -14.261719 26.027344 -11.710938 C 24.5625 -10.03125 22.015625 -8.078125 18.003906 -8.078125 L 11.875 -8.078125 L 11.875 -35.300781 Z M 18.003906 -35.300781 "/></g></g></g><g fill="#f7cb2d" fill-opacity="1"><g transform="translate(117.633366, 278.683911)"><g><path d="M 30.746094 -35.246094 L 30.746094 -43.378906 L 3.796875 -43.378906 L 3.796875 0 L 11.929688 0 L 11.929688 -15.34375 L 23.859375 -15.34375 L 23.859375 -23.480469 L 11.929688 -23.480469 L 11.929688 -35.246094 Z M 30.746094 -35.246094 "/></g></g></g><g fill="#f7cb2d" fill-opacity="1"><g transform="translate(150.492281, 278.683911)"><g><path d="M 28.957031 -35.355469 L 28.957031 -43.433594 L 3.796875 -43.433594 L 3.796875 0 L 28.957031 0 L 28.957031 -8.078125 L 11.929688 -8.078125 L 11.929688 -17.730469 L 22.070312 -17.730469 L 22.070312 -25.8125 L 11.929688 -25.8125 L 11.929688 -35.355469 Z M 28.957031 -35.355469 "/></g></g></g><g fill="#f7cb2d" fill-opacity="1"><g transform="translate(183.242752, 278.683911)"><g><path d="M 28.957031 -35.355469 L 28.957031 -43.433594 L 3.796875 -43.433594 L 3.796875 0 L 28.957031 0 L 28.957031 -8.078125 L 11.929688 -8.078125 L 11.929688 -17.730469 L 22.070312 -17.730469 L 22.070312 -25.8125 L 11.929688 -25.8125 L 11.929688 -35.355469 Z M 28.957031 -35.355469 "/></g></g></g><g fill="#f7cb2d" fill-opacity="1"><g transform="translate(215.993222, 278.683911)"><g><path d="M 18.003906 -43.378906 L 3.796875 -43.378906 L 3.796875 0 L 18.003906 0 C 29.445312 0 37.578125 -9.707031 37.578125 -21.691406 C 37.578125 -33.671875 29.117188 -43.378906 18.003906 -43.378906 Z M 18.003906 -35.300781 C 24.457031 -35.300781 29.5 -29.335938 29.5 -21.691406 C 29.5 -17.785156 28.304688 -14.261719 26.027344 -11.710938 C 24.5625 -10.03125 22.015625 -8.078125 18.003906 -8.078125 L 11.875 -8.078125 L 11.875 -35.300781 Z M 18.003906 -35.300781 "/></g></g></g></svg>