<svg xmlns="http://www.w3.org/2000/svg" xmlns:xlink="http://www.w3.org/1999/xlink" width="500" zoomAndPan="magnify" viewBox="0 0 375 374.999991" height="500" preserveAspectRatio="xMidYMid meet" version="1.0"><defs><g/><clipPath id="id1"><path d="M 121.5625 94 L 253.5625 94 L 253.5625 224.921875 L 121.5625 224.921875 Z M 121.5625 94 " clip-rule="nonzero"/></clipPath></defs><g clip-path="url(#id1)"><path fill="#ffffff" d="M 191.222656 109.234375 C 189.003906 107.757812 186.117188 107.757812 183.898438 109.234375 L 137.699219 140.035156 C 135.863281 141.257812 134.761719 143.320312 134.761719 145.527344 L 134.761719 204.460938 C 134.761719 208.105469 137.714844 211.0625 141.363281 211.0625 L 161.160156 211.0625 L 161.160156 184.660156 C 161.160156 173.726562 170.027344 164.863281 180.960938 164.863281 L 194.160156 164.863281 C 205.097656 164.863281 213.960938 173.726562 213.960938 184.660156 L 213.960938 211.0625 L 233.761719 211.0625 C 237.40625 211.0625 240.359375 208.105469 240.359375 204.460938 L 240.359375 145.527344 C 240.359375 143.320312 239.257812 141.257812 237.421875 140.035156 Z M 176.578125 98.25 C 183.230469 93.816406 191.894531 93.816406 198.542969 98.25 L 244.746094 129.050781 C 250.253906 132.722656 253.5625 138.90625 253.5625 145.527344 L 253.5625 204.460938 C 253.5625 215.398438 244.695312 224.261719 233.761719 224.261719 L 207.363281 224.261719 C 203.714844 224.261719 200.761719 221.308594 200.761719 217.660156 L 200.761719 184.660156 C 200.761719 181.015625 197.804688 178.0625 194.160156 178.0625 L 180.960938 178.0625 C 177.316406 178.0625 174.363281 181.015625 174.363281 184.660156 L 174.363281 217.660156 C 174.363281 221.308594 171.40625 224.261719 167.761719 224.261719 L 141.363281 224.261719 C 130.425781 224.261719 121.5625 215.398438 121.5625 204.460938 L 121.5625 145.527344 C 121.5625 138.90625 124.871094 132.722656 130.378906 129.050781 Z M 176.578125 98.25 " fill-opacity="1" fill-rule="evenodd"/></g><g fill="#ff8d55" fill-opacity="0.4"><g transform="translate(101.320575, 279.89859)"><g><path d="M 29.550781 -43.054688 L 29.550781 -23.261719 L 11.929688 -23.261719 L 11.929688 -43.054688 L 3.796875 -43.054688 L 3.796875 0.378906 L 11.929688 0.378906 L 11.929688 -15.183594 L 29.550781 -15.183594 L 29.550781 0.378906 L 37.632812 0.378906 L 37.632812 -43.054688 Z M 29.550781 -43.054688 "/></g></g></g><g fill="#ff8d55" fill-opacity="0.4"><g transform="translate(142.746674, 279.89859)"><g><path d="M 24.074219 -43.921875 C 11.820312 -43.921875 1.898438 -34 1.898438 -21.746094 C 1.898438 -9.488281 11.820312 0.433594 24.074219 0.433594 C 36.332031 0.433594 46.253906 -9.488281 46.253906 -21.746094 C 46.253906 -34 36.332031 -43.921875 24.074219 -43.921875 Z M 24.074219 -35.625 C 31.777344 -35.625 37.199219 -29.390625 37.199219 -21.746094 C 37.199219 -14.097656 31.777344 -7.863281 24.074219 -7.863281 C 16.429688 -7.863281 11.007812 -14.097656 11.007812 -21.746094 C 11.007812 -29.390625 16.429688 -35.625 24.074219 -35.625 Z M 24.074219 -35.625 "/></g></g></g><g fill="#ff8d55" fill-opacity="0.4"><g transform="translate(190.896382, 279.89859)"><g><path d="M 39.910156 -43.378906 L 31.015625 -43.378906 L 21.851562 -21.527344 L 12.742188 -43.378906 L 3.796875 -43.378906 L 3.796875 0 L 11.929688 0 L 11.929688 -23.96875 L 17.40625 -10.898438 L 26.300781 -10.898438 L 31.828125 -24.074219 L 31.828125 0 L 39.910156 0 Z M 39.910156 -43.378906 "/></g></g></g><g fill="#ff8d55" fill-opacity="0.4"><g transform="translate(234.599832, 279.89859)"><g><path d="M 28.957031 -35.355469 L 28.957031 -43.433594 L 3.796875 -43.433594 L 3.796875 0 L 28.957031 0 L 28.957031 -8.078125 L 11.929688 -8.078125 L 11.929688 -17.730469 L 22.070312 -17.730469 L 22.070312 -25.8125 L 11.929688 -25.8125 L 11.929688 -35.355469 Z M 28.957031 -35.355469 "/></g></g></g><g fill="#f7cb2d" fill-opacity="1"><g transform="translate(104.484929, 278.683911)"><g><path d="M 29.550781 -43.054688 L 29.550781 -23.261719 L 11.929688 -23.261719 L 11.929688 -43.054688 L 3.796875 -43.054688 L 3.796875 0.378906 L 11.929688 0.378906 L 11.929688 -15.183594 L 29.550781 -15.183594 L 29.550781 0.378906 L 37.632812 0.378906 L 37.632812 -43.054688 Z M 29.550781 -43.054688 "/></g></g></g><g fill="#f7cb2d" fill-opacity="1"><g transform="translate(145.911028, 278.683911)"><g><path d="M 24.074219 -43.921875 C 11.820312 -43.921875 1.898438 -34 1.898438 -21.746094 C 1.898438 -9.488281 11.820312 0.433594 24.074219 0.433594 C 36.332031 0.433594 46.253906 -9.488281 46.253906 -21.746094 C 46.253906 -34 36.332031 -43.921875 24.074219 -43.921875 Z M 24.074219 -35.625 C 31.777344 -35.625 37.199219 -29.390625 37.199219 -21.746094 C 37.199219 -14.097656 31.777344 -7.863281 24.074219 -7.863281 C 16.429688 -7.863281 11.007812 -14.097656 11.007812 -21.746094 C 11.007812 -29.390625 16.429688 -35.625 24.074219 -35.625 Z M 24.074219 -35.625 "/></g></g></g><g fill="#f7cb2d" fill-opacity="1"><g transform="translate(194.060736, 278.683911)"><g><path d="M 39.910156 -43.378906 L 31.015625 -43.378906 L 21.851562 -21.527344 L 12.742188 -43.378906 L 3.796875 -43.378906 L 3.796875 0 L 11.929688 0 L 11.929688 -23.96875 L 17.40625 -10.898438 L 26.300781 -10.898438 L 31.828125 -24.074219 L 31.828125 0 L 39.910156 0 Z M 39.910156 -43.378906 "/></g></g></g><g fill="#f7cb2d" fill-opacity="1"><g transform="translate(237.764186, 278.683911)"><g><path d="M 28.957031 -35.355469 L 28.957031 -43.433594 L 3.796875 -43.433594 L 3.796875 0 L 28.957031 0 L 28.957031 -8.078125 L 11.929688 -8.078125 L 11.929688 -17.730469 L 22.070312 -17.730469 L 22.070312 -25.8125 L 11.929688 -25.8125 L 11.929688 -35.355469 Z M 28.957031 -35.355469 "/></g></g></g></svg>