<svg xmlns="http://www.w3.org/2000/svg" xmlns:xlink="http://www.w3.org/1999/xlink" width="500" zoomAndPan="magnify" viewBox="0 0 375 374.999991" height="500" preserveAspectRatio="xMidYMid meet" version="1.0"><defs><g/><clipPath id="id1"><path d="M 132.355469 93.386719 L 242.824219 93.386719 L 242.824219 225.386719 L 132.355469 225.386719 Z M 132.355469 93.386719 " clip-rule="nonzero"/></clipPath></defs><path fill="#ffffff" d="M 190.042969 186.09375 C 191.273438 187.324219 192.808594 187.933594 194.328125 187.933594 C 195.863281 187.933594 197.398438 187.324219 198.628906 186.09375 L 221.023438 163.6875 C 223.484375 161.226562 223.484375 157.394531 221.023438 154.933594 L 198.628906 132.679688 C 196.179688 130.230469 192.339844 130.230469 189.890625 132.679688 C 187.429688 135.128906 187.429688 138.972656 189.890625 141.433594 L 201.851562 153.398438 L 164.566406 153.398438 C 161.191406 153.398438 158.441406 156.164062 158.441406 159.539062 C 158.441406 162.914062 161.191406 165.679688 164.566406 165.679688 L 201.851562 165.679688 L 189.890625 177.65625 C 187.582031 179.800781 187.582031 183.796875 190.042969 186.09375 " fill-opacity="1" fill-rule="nonzero"/><g clip-path="url(#id1)"><path fill="#ffffff" d="M 236.675781 139.429688 C 240.058594 139.429688 242.8125 136.664062 242.8125 133.289062 L 242.8125 115.488281 C 242.8125 103.207031 232.996094 93.386719 220.71875 93.386719 L 154.445312 93.386719 C 142.167969 93.386719 132.355469 103.207031 132.355469 115.488281 L 132.355469 203.4375 C 132.355469 215.566406 142.167969 225.386719 154.445312 225.386719 L 220.871094 225.386719 C 232.996094 225.386719 242.8125 215.566406 242.8125 203.285156 L 242.8125 185.484375 C 242.8125 182.109375 240.058594 179.34375 236.675781 179.34375 C 233.300781 179.34375 230.546875 182.109375 230.546875 185.484375 L 230.546875 203.285156 C 230.546875 208.664062 226.097656 213.105469 220.71875 213.105469 L 154.445312 213.105469 C 149.082031 213.105469 144.628906 208.664062 144.628906 203.285156 L 144.628906 115.488281 C 144.628906 110.121094 149.082031 105.667969 154.445312 105.667969 L 220.871094 105.667969 C 226.25 105.667969 230.699219 110.121094 230.699219 115.488281 L 230.699219 133.289062 C 230.546875 136.664062 233.300781 139.429688 236.675781 139.429688 " fill-opacity="1" fill-rule="nonzero"/></g><g fill="#ff8d55" fill-opacity="0.4"><g transform="translate(53.460931, 280.363297)"><g><path d="M 11.875 -8.078125 L 11.875 -43.378906 L 3.796875 -43.378906 L 3.796875 0 L 28.902344 0 L 28.902344 -8.078125 Z M 11.875 -8.078125 "/></g></g></g><g fill="#ff8d55" fill-opacity="0.4"><g transform="translate(86.157179, 280.363297)"><g><path d="M 24.074219 -43.921875 C 11.820312 -43.921875 1.898438 -34 1.898438 -21.746094 C 1.898438 -9.488281 11.820312 0.433594 24.074219 0.433594 C 36.332031 0.433594 46.253906 -9.488281 46.253906 -21.746094 C 46.253906 -34 36.332031 -43.921875 24.074219 -43.921875 Z M 24.074219 -35.625 C 31.777344 -35.625 37.199219 -29.390625 37.199219 -21.746094 C 37.199219 -14.097656 31.777344 -7.863281 24.074219 -7.863281 C 16.429688 -7.863281 11.007812 -14.097656 11.007812 -21.746094 C 11.007812 -29.390625 16.429688 -35.625 24.074219 -35.625 Z M 24.074219 -35.625 "/></g></g></g><g fill="#ff8d55" fill-opacity="0.4"><g transform="translate(134.306888, 280.363297)"><g><path d="M 47.878906 -25.324219 L 27.65625 -25.324219 L 27.65625 -17.027344 L 38.390625 -17.027344 C 36.710938 -11.660156 32.046875 -7.753906 25.972656 -7.753906 C 18.328125 -7.753906 12.90625 -13.988281 12.90625 -21.636719 C 12.90625 -29.28125 18.328125 -35.515625 25.972656 -35.515625 C 28.683594 -35.515625 31.125 -34.757812 33.078125 -33.402344 L 39.152344 -39.476562 C 35.464844 -42.1875 30.910156 -43.8125 25.972656 -43.8125 C 13.71875 -43.8125 3.796875 -33.890625 3.796875 -21.636719 C 3.796875 -9.382812 13.71875 0.542969 25.972656 0.542969 C 38.230469 0.542969 48.152344 -9.382812 48.152344 -21.636719 C 48.152344 -22.882812 48.042969 -24.128906 47.878906 -25.324219 Z M 47.878906 -25.324219 "/></g></g></g><g fill="#ff8d55" fill-opacity="0.4"><g transform="translate(186.252177, 280.363297)"><g><path d="M 24.074219 -43.921875 C 11.820312 -43.921875 1.898438 -34 1.898438 -21.746094 C 1.898438 -9.488281 11.820312 0.433594 24.074219 0.433594 C 36.332031 0.433594 46.253906 -9.488281 46.253906 -21.746094 C 46.253906 -34 36.332031 -43.921875 24.074219 -43.921875 Z M 24.074219 -35.625 C 31.777344 -35.625 37.199219 -29.390625 37.199219 -21.746094 C 37.199219 -14.097656 31.777344 -7.863281 24.074219 -7.863281 C 16.429688 -7.863281 11.007812 -14.097656 11.007812 -21.746094 C 11.007812 -29.390625 16.429688 -35.625 24.074219 -35.625 Z M 24.074219 -35.625 "/></g></g></g><g fill="#ff8d55" fill-opacity="0.4"><g transform="translate(234.401885, 280.363297)"><g><path d="M 28.738281 -43.378906 L 28.738281 -15.019531 C 28.738281 -10.628906 25.214844 -7.101562 20.875 -7.101562 L 19.792969 -7.101562 C 15.453125 -7.101562 11.929688 -10.628906 11.929688 -15.019531 L 11.929688 -43.378906 L 3.796875 -43.378906 L 3.796875 -15.019531 C 3.796875 -6.234375 11.007812 0.976562 19.792969 0.976562 L 20.875 0.976562 C 29.660156 0.976562 36.820312 -6.234375 36.820312 -15.019531 L 36.820312 -43.378906 Z M 28.738281 -43.378906 "/></g></g></g><g fill="#ff8d55" fill-opacity="0.4"><g transform="translate(275.014642, 280.363297)"><g><path d="M 36.386719 -43.378906 L 3.796875 -43.378906 L 3.796875 -35.300781 L 16.050781 -35.300781 L 16.050781 0 L 24.128906 0 L 24.128906 -35.300781 L 36.386719 -35.300781 Z M 36.386719 -43.378906 "/></g></g></g><g fill="#f7cb2d" fill-opacity="1"><g transform="translate(56.625283, 279.148618)"><g><path d="M 11.875 -8.078125 L 11.875 -43.378906 L 3.796875 -43.378906 L 3.796875 0 L 28.902344 0 L 28.902344 -8.078125 Z M 11.875 -8.078125 "/></g></g></g><g fill="#f7cb2d" fill-opacity="1"><g transform="translate(89.321531, 279.148618)"><g><path d="M 24.074219 -43.921875 C 11.820312 -43.921875 1.898438 -34 1.898438 -21.746094 C 1.898438 -9.488281 11.820312 0.433594 24.074219 0.433594 C 36.332031 0.433594 46.253906 -9.488281 46.253906 -21.746094 C 46.253906 -34 36.332031 -43.921875 24.074219 -43.921875 Z M 24.074219 -35.625 C 31.777344 -35.625 37.199219 -29.390625 37.199219 -21.746094 C 37.199219 -14.097656 31.777344 -7.863281 24.074219 -7.863281 C 16.429688 -7.863281 11.007812 -14.097656 11.007812 -21.746094 C 11.007812 -29.390625 16.429688 -35.625 24.074219 -35.625 Z M 24.074219 -35.625 "/></g></g></g><g fill="#f7cb2d" fill-opacity="1"><g transform="translate(137.471239, 279.148618)"><g><path d="M 47.878906 -25.324219 L 27.65625 -25.324219 L 27.65625 -17.027344 L 38.390625 -17.027344 C 36.710938 -11.660156 32.046875 -7.753906 25.972656 -7.753906 C 18.328125 -7.753906 12.90625 -13.988281 12.90625 -21.636719 C 12.90625 -29.28125 18.328125 -35.515625 25.972656 -35.515625 C 28.683594 -35.515625 31.125 -34.757812 33.078125 -33.402344 L 39.152344 -39.476562 C 35.464844 -42.1875 30.910156 -43.8125 25.972656 -43.8125 C 13.71875 -43.8125 3.796875 -33.890625 3.796875 -21.636719 C 3.796875 -9.382812 13.71875 0.542969 25.972656 0.542969 C 38.230469 0.542969 48.152344 -9.382812 48.152344 -21.636719 C 48.152344 -22.882812 48.042969 -24.128906 47.878906 -25.324219 Z M 47.878906 -25.324219 "/></g></g></g><g fill="#f7cb2d" fill-opacity="1"><g transform="translate(189.416529, 279.148618)"><g><path d="M 24.074219 -43.921875 C 11.820312 -43.921875 1.898438 -34 1.898438 -21.746094 C 1.898438 -9.488281 11.820312 0.433594 24.074219 0.433594 C 36.332031 0.433594 46.253906 -9.488281 46.253906 -21.746094 C 46.253906 -34 36.332031 -43.921875 24.074219 -43.921875 Z M 24.074219 -35.625 C 31.777344 -35.625 37.199219 -29.390625 37.199219 -21.746094 C 37.199219 -14.097656 31.777344 -7.863281 24.074219 -7.863281 C 16.429688 -7.863281 11.007812 -14.097656 11.007812 -21.746094 C 11.007812 -29.390625 16.429688 -35.625 24.074219 -35.625 Z M 24.074219 -35.625 "/></g></g></g><g fill="#f7cb2d" fill-opacity="1"><g transform="translate(237.566237, 279.148618)"><g><path d="M 28.738281 -43.378906 L 28.738281 -15.019531 C 28.738281 -10.628906 25.214844 -7.101562 20.875 -7.101562 L 19.792969 -7.101562 C 15.453125 -7.101562 11.929688 -10.628906 11.929688 -15.019531 L 11.929688 -43.378906 L 3.796875 -43.378906 L 3.796875 -15.019531 C 3.796875 -6.234375 11.007812 0.976562 19.792969 0.976562 L 20.875 0.976562 C 29.660156 0.976562 36.820312 -6.234375 36.820312 -15.019531 L 36.820312 -43.378906 Z M 28.738281 -43.378906 "/></g></g></g><g fill="#f7cb2d" fill-opacity="1"><g transform="translate(278.178993, 279.148618)"><g><path d="M 36.386719 -43.378906 L 3.796875 -43.378906 L 3.796875 -35.300781 L 16.050781 -35.300781 L 16.050781 0 L 24.128906 0 L 24.128906 -35.300781 L 36.386719 -35.300781 Z M 36.386719 -43.378906 "/></g></g></g></svg>