<svg xmlns="http://www.w3.org/2000/svg" xmlns:xlink="http://www.w3.org/1999/xlink" width="500" zoomAndPan="magnify" viewBox="0 0 375 374.999991" height="500" preserveAspectRatio="xMidYMid meet" version="1.0"><defs><g/></defs><g fill="#ff8d55" fill-opacity="0.4"><g transform="translate(25.994021, 212.357404)"><g><path d="M 26.375 -48.117188 C 12.949219 -48.117188 2.078125 -37.246094 2.078125 -23.820312 C 2.078125 -10.394531 12.949219 0.476562 26.375 0.476562 C 39.800781 0.476562 50.667969 -10.394531 50.667969 -23.820312 C 50.667969 -37.246094 39.800781 -48.117188 26.375 -48.117188 Z M 26.375 -39.027344 C 34.808594 -39.027344 40.75 -32.195312 40.75 -23.820312 C 40.75 -15.445312 34.808594 -8.613281 26.375 -8.613281 C 18 -8.613281 12.058594 -15.445312 12.058594 -23.820312 C 12.058594 -32.195312 18 -39.027344 26.375 -39.027344 Z M 26.375 -39.027344 "/></g></g></g><g fill="#ff8d55" fill-opacity="0.4"><g transform="translate(78.741581, 212.357404)"><g><path d="M 39.859375 -47.523438 L 4.15625 -47.523438 L 4.15625 -38.671875 L 17.582031 -38.671875 L 17.582031 0 L 26.433594 0 L 26.433594 -38.671875 L 39.859375 -38.671875 Z M 39.859375 -47.523438 "/></g></g></g><g fill="#ff8d55" fill-opacity="0.4"><g transform="translate(122.757275, 212.357404)"><g><path d="M 32.195312 0 L 41.460938 0 L 27.503906 -47.402344 L 27.503906 -47.523438 L 18.175781 -47.523438 L 4.15625 0 L 13.484375 0 L 16.988281 -11.820312 L 28.691406 -11.820312 Z M 19.601562 -20.671875 L 22.871094 -31.71875 L 26.078125 -20.671875 Z M 19.601562 -20.671875 "/></g></g></g><g fill="#ff8d55" fill-opacity="0.4"><g transform="translate(168.376782, 212.357404)"><g><path d="M 30.652344 0 L 41.285156 0 L 24.414062 -24.949219 L 40.75 -47.523438 L 30.59375 -47.523438 L 13.070312 -23.40625 L 13.070312 -47.523438 L 4.15625 -47.523438 L 4.15625 0 L 13.070312 0 L 13.070312 -9.386719 L 18.949219 -17.523438 Z M 30.652344 0 "/></g></g></g><g fill="#ff8d55" fill-opacity="0.4"><g transform="translate(213.818091, 212.357404)"><g><path d="M 31.484375 -47.523438 L 31.484375 -16.453125 C 31.484375 -11.644531 27.621094 -7.78125 22.871094 -7.78125 L 21.683594 -7.78125 C 16.929688 -7.78125 13.070312 -11.644531 13.070312 -16.453125 L 13.070312 -47.523438 L 4.15625 -47.523438 L 4.15625 -16.453125 C 4.15625 -6.832031 12.058594 1.070312 21.683594 1.070312 L 22.871094 1.070312 C 32.492188 1.070312 40.332031 -6.832031 40.332031 -16.453125 L 40.332031 -47.523438 Z M 31.484375 -47.523438 "/></g></g></g><g fill="#ff8d55" fill-opacity="0.4"><g transform="translate(258.309003, 212.357404)"><g><path d="M 43.71875 -47.523438 L 33.976562 -47.523438 L 23.9375 -23.582031 L 13.960938 -47.523438 L 4.15625 -47.523438 L 4.15625 0 L 13.070312 0 L 13.070312 -26.253906 L 19.066406 -11.941406 L 28.808594 -11.941406 L 34.867188 -26.375 L 34.867188 0 L 43.71875 0 Z M 43.71875 -47.523438 "/></g></g></g><g fill="#ff8d55" fill-opacity="0.4"><g transform="translate(306.185738, 212.357404)"><g><path d="M 31.71875 -38.730469 L 31.71875 -47.582031 L 4.15625 -47.582031 L 4.15625 0 L 31.71875 0 L 31.71875 -8.851562 L 13.070312 -8.851562 L 13.070312 -19.425781 L 24.175781 -19.425781 L 24.175781 -28.273438 L 13.070312 -28.273438 L 13.070312 -38.730469 Z M 31.71875 -38.730469 "/></g></g></g><g fill="#f7cb2d" fill-opacity="1"><g transform="translate(29.460171, 211.026871)"><g><path d="M 26.375 -48.117188 C 12.949219 -48.117188 2.078125 -37.246094 2.078125 -23.820312 C 2.078125 -10.394531 12.949219 0.476562 26.375 0.476562 C 39.800781 0.476562 50.667969 -10.394531 50.667969 -23.820312 C 50.667969 -37.246094 39.800781 -48.117188 26.375 -48.117188 Z M 26.375 -39.027344 C 34.808594 -39.027344 40.75 -32.195312 40.75 -23.820312 C 40.75 -15.445312 34.808594 -8.613281 26.375 -8.613281 C 18 -8.613281 12.058594 -15.445312 12.058594 -23.820312 C 12.058594 -32.195312 18 -39.027344 26.375 -39.027344 Z M 26.375 -39.027344 "/></g></g></g><g fill="#f7cb2d" fill-opacity="1"><g transform="translate(82.207731, 211.026871)"><g><path d="M 39.859375 -47.523438 L 4.15625 -47.523438 L 4.15625 -38.671875 L 17.582031 -38.671875 L 17.582031 0 L 26.433594 0 L 26.433594 -38.671875 L 39.859375 -38.671875 Z M 39.859375 -47.523438 "/></g></g></g><g fill="#f7cb2d" fill-opacity="1"><g transform="translate(126.223425, 211.026871)"><g><path d="M 32.195312 0 L 41.460938 0 L 27.503906 -47.402344 L 27.503906 -47.523438 L 18.175781 -47.523438 L 4.15625 0 L 13.484375 0 L 16.988281 -11.820312 L 28.691406 -11.820312 Z M 19.601562 -20.671875 L 22.871094 -31.71875 L 26.078125 -20.671875 Z M 19.601562 -20.671875 "/></g></g></g><g fill="#f7cb2d" fill-opacity="1"><g transform="translate(171.842932, 211.026871)"><g><path d="M 30.652344 0 L 41.285156 0 L 24.414062 -24.949219 L 40.75 -47.523438 L 30.59375 -47.523438 L 13.070312 -23.40625 L 13.070312 -47.523438 L 4.15625 -47.523438 L 4.15625 0 L 13.070312 0 L 13.070312 -9.386719 L 18.949219 -17.523438 Z M 30.652344 0 "/></g></g></g><g fill="#f7cb2d" fill-opacity="1"><g transform="translate(217.284241, 211.026871)"><g><path d="M 31.484375 -47.523438 L 31.484375 -16.453125 C 31.484375 -11.644531 27.621094 -7.78125 22.871094 -7.78125 L 21.683594 -7.78125 C 16.929688 -7.78125 13.070312 -11.644531 13.070312 -16.453125 L 13.070312 -47.523438 L 4.15625 -47.523438 L 4.15625 -16.453125 C 4.15625 -6.832031 12.058594 1.070312 21.683594 1.070312 L 22.871094 1.070312 C 32.492188 1.070312 40.332031 -6.832031 40.332031 -16.453125 L 40.332031 -47.523438 Z M 31.484375 -47.523438 "/></g></g></g><g fill="#f7cb2d" fill-opacity="1"><g transform="translate(261.775153, 211.026871)"><g><path d="M 43.71875 -47.523438 L 33.976562 -47.523438 L 23.9375 -23.582031 L 13.960938 -47.523438 L 4.15625 -47.523438 L 4.15625 0 L 13.070312 0 L 13.070312 -26.253906 L 19.066406 -11.941406 L 28.808594 -11.941406 L 34.867188 -26.375 L 34.867188 0 L 43.71875 0 Z M 43.71875 -47.523438 "/></g></g></g><g fill="#f7cb2d" fill-opacity="1"><g transform="translate(309.651888, 211.026871)"><g><path d="M 31.71875 -38.730469 L 31.71875 -47.582031 L 4.15625 -47.582031 L 4.15625 0 L 31.71875 0 L 31.71875 -8.851562 L 13.070312 -8.851562 L 13.070312 -19.425781 L 24.175781 -19.425781 L 24.175781 -28.273438 L 13.070312 -28.273438 L 13.070312 -38.730469 Z M 31.71875 -38.730469 "/></g></g></g></svg>